<?xml version="1.0" encoding="utf-8"?>
<!-- Generator: Adobe Illustrator 23.0.1, SVG Export Plug-In . SVG Version: 6.00 Build 0)  -->
<svg version="1.1" id="Слой_1" xmlns="http://www.w3.org/2000/svg" xmlns:xlink="http://www.w3.org/1999/xlink" x="0px" y="0px"
	 viewBox="0 0 751.52 751.41" style="enable-background:new 0 0 751.52 751.41;" xml:space="preserve">
<style type="text/css">
	.st0{fill:#C92E31;}
	.st1{fill:#CA2E31;}
	.st2{fill:#079B24;}
	.st3{fill:#FFFFFF;}
</style>
<g>
	<path d="M375.65,0.12c206.18-0.16,375.41,166.75,375.5,375.29c0.09,208.39-168.84,375.61-375.42,375.63
		C169.13,751.07,0.18,583.86,0.23,375.49C0.28,166.98,169.44,0,375.65,0.12z M748.81,375.79C748.69,168.6,580.9,2.57,375.84,2.48
		C171.23,2.4,3.2,167.65,2.62,374.52C2.04,581.88,169.86,748.36,375.18,748.67C581.21,748.98,748.45,582.15,748.81,375.79z"/>
	<path class="st0" d="M152.88,451.79c4.88-0.95,9.76-1.9,14.63-2.85c2.43-0.47,4.85-0.94,7.28-1.42c1.16-0.22,2.31-0.45,3.47-0.67
		c0.5-0.1,1.04-0.29,1.55-0.3c0.66-0.01,0.2-0.11,0.57,0.15c0.19,0.14,0.36,0.44,0.49,0.64c1.18,1.87,1.84,4.23,2.71,6.26
		c0.94,2.2,1.97,4.35,3.01,6.5c2.09,4.34,4.23,8.66,6.63,12.84c9.57,16.68,20.68,32.53,33.37,46.99
		c6.49,7.39,13.12,14.59,20.16,21.46c6.94,6.78,14.17,13.28,21.52,19.61c7.4,6.37,15.15,12.32,22.86,18.31
		c7.61,5.92,15.31,11.6,23.4,16.84c8.14,5.27,16.09,10.86,24.39,15.87c4.15,2.5,8.33,4.96,12.48,7.46c2.04,1.23,4.08,2.47,6.2,3.57
		c0.97,0.51,1.95,1.03,2.94,1.49c0.45,0.21,0.75,0.31,1.14,0.64c0.42,0.36,0.89,0.65,1.41,0.84c1.72,0.65,3.61,0.26,5.4,0.36
		c2.15,0.11,4.08-0.18,6.05-1.07c2.05-0.92,4.01-2.04,6.07-2.96c2.23-1,4.39-2.14,6.56-3.26c4.44-2.29,8.87-4.6,13.28-6.94
		c4.16-2.21,8.14-4.68,12.15-7.17c4.09-2.54,8.2-5.06,12.15-7.83c3.99-2.8,7.92-5.67,11.85-8.57c7.81-5.76,15.74-11.38,22.94-17.91
		c7.1-6.44,14.36-12.72,21.07-19.58c6.75-6.91,13.5-13.91,19.67-21.34c6.11-7.36,11.96-15.01,17.48-22.83
		c2.61-3.7,5.27-7.38,7.43-11.37c1.09-2.01,2.19-3.94,3.5-5.82c1.31-1.89,2.59-3.78,3.7-5.8c2.29-4.18,4.32-8.49,6.57-12.69
		c2.31-4.32,4.23-8.86,6.24-13.33c0.49-1.08,0.98-2.17,1.47-3.25c0.51-1.12,0.91-2.53,1.62-3.53c0.35-0.5,0.07-0.21,0.55-0.33
		c0.28-0.07,0.69,0,0.98,0c0.59,0,1.18,0,1.76,0c1.31,0,2.61,0,3.92,0c4.9,0,9.8,0,14.7,0c4.8,0,9.6,0,14.41,0
		c-1.43,5.36-3.47,10.58-5.38,15.78c-1.93,5.26-3.94,10.49-6.01,15.7c-4.17,10.47-8.61,20.83-13.3,31.08
		c-9.46,20.69-19.85,40.97-31.44,60.55c-11.18,18.88-23.44,37.24-37.71,53.94c-6.89,8.07-14.35,15.73-22.64,22.37
		c-8.06,6.45-17.41,12.42-27.72,14.27c-11.04,1.99-22.33-0.94-32.99-3.64c-11.12-2.81-22.2-6.04-33.46-8.24
		c-10.93-2.13-22.32-2.01-32.76,2.17c-5.13,2.05-9.94,4.84-14.9,7.25c-4.86,2.35-10.14,4.78-15.53,5.57
		c-5.56,0.82-11.33-0.19-16.69-1.69c-4.8-1.34-9.4-3.32-13.76-5.74c-9.06-5.02-17.17-11.75-24.52-19.01
		c-15.42-15.23-28.16-33.15-39.57-51.51c-11.81-19-22.31-38.8-31.86-59.03c-9.75-20.66-18.75-41.76-26.26-63.35
		C156.28,462.15,154.5,456.99,152.88,451.79z"/>
	<path class="st1" d="M146.52,324.85c0.26-2.46,0.97-4.82,1.64-7.2c0.65-2.3,1.34-4.59,2.08-6.86c1.47-4.52,3.13-8.98,4.99-13.36
		c3.75-8.83,8.32-17.3,13.74-25.22c10.02-14.65,23.06-26.96,38.24-36.16c16.8-10.18,35.9-17,55.37-19.65
		c19.85-2.7,40.45-1.12,59.11,6.44c17.34,7.02,31.99,19.1,42.99,34.16c0.71,0.97,1.4,1.94,2.08,2.93c0.61,0.88,1.13,2.02,2.2,2.28
		c0.34-3.16-0.39-6.52-0.83-9.67c-0.46-3.31-0.98-6.61-1.59-9.9c-1.2-6.49-2.72-12.93-4.6-19.26c-3.61-12.16-8.59-23.91-15.05-34.83
		c-6.13-10.35-13.56-19.9-22.02-28.45c-9.08-9.18-19.32-17.15-30.11-24.22c-11.42-7.48-23.49-13.85-35.63-20.07
		c-1.24-0.64-2.46-1.31-3.69-1.98c6.47-2.45,12.97-4.91,19.32-7.67c5.77-2.51,11.14-5.62,15.53-10.21c2.4-2.51,4.29-5.37,6.16-8.28
		c5.08,4.08,9.99,8.25,14.54,12.93c4.43,4.55,8.56,9.39,12.45,14.41c7.72,9.97,14.61,20.59,20.73,31.6
		c6.06,10.91,11.35,22.23,15.94,33.83c4.85,12.27,8.9,24.82,12.05,37.64c1.64,6.69,3.21,13.43,4.17,20.25
		c0.98,6.92,1.31,13.93,1.8,20.9c0.1,1.38,0.21,2.75,0.37,4.12c1.03-0.46,1.85-0.86,2.75-1.56c1.01-0.79,2-1.6,3.02-2.38
		c1.85-1.41,3.78-2.71,5.7-4.02c3.95-2.68,7.96-5.27,12.06-7.71c8.19-4.89,16.73-9.2,25.6-12.71c18.32-7.24,38.08-11.18,57.81-10
		c16.51,0.99,32.79,5.29,47.37,13.19c14.7,7.96,27.52,19.35,37.59,32.66c10.55,13.95,17.88,29.95,22.74,46.7
		c0.63,2.17,1.44,4.33,1.66,6.57c-9.46,0.38-18.92,0.76-28.38,1.15c-2.3,0.09-4.61,0.19-6.91,0.28c-0.2,0.01-0.84,0.14-0.99,0.04
		c-0.08-0.05-0.27-0.69-0.28-0.72c-0.19-0.48-0.37-0.96-0.56-1.44c-0.44-1.14-0.87-2.29-1.33-3.43c-1.71-4.27-3.82-8.38-5.91-12.48
		c-7.86-15.35-20.8-28.51-35.51-37.41c-7.33-4.43-15.36-7.71-23.59-10.05c-4.3-1.22-8.69-2.15-13.14-2.66
		c-4.61-0.53-9.29-0.62-13.92-0.72c-9.26-0.21-18.3,0.42-27.32,2.63c-8.6,2.11-16.93,5.09-24.71,9.35
		c-3.87,2.12-7.73,4.35-11.36,6.87c-3.6,2.49-7.01,5.24-10.45,7.95c-1.69,1.32-3.27,2.62-4.72,4.21c-1.55,1.7-3.12,3.39-4.68,5.09
		c-1.6,1.74-3.19,3.47-4.78,5.21c-0.75,0.82-1.51,1.64-2.26,2.46c-0.29,0.31-0.71,0.97-1.1,1.16c-0.5,0.24-0.65-0.23-1.03-0.67
		c-2.9-3.33-5.71-6.75-8.68-10.02c-2.91-3.21-6.03-6.25-9.22-9.19c-3.23-2.96-6.6-5.76-10.2-8.26c-3.62-2.51-7.11-5.23-10.9-7.5
		c-7.55-4.52-15.63-8.3-24.04-10.93c-4.34-1.35-8.77-2.4-13.23-3.23c-4.41-0.83-8.78-1.53-13.27-1.52
		c-9.21,0.03-18.64-0.45-27.73,1.24c-2.24,0.42-4.39,1.06-6.58,1.69c-2.15,0.62-4.34,1.08-6.48,1.73c-4.2,1.28-8.31,2.97-12.27,4.86
		c-15.22,7.23-28.39,18.58-38.26,32.19c-4.99,6.88-9.27,14.26-12.7,22.03c-0.84,1.9-1.62,3.81-2.36,5.75
		c-0.37,0.98-0.75,1.95-1.08,2.94c-0.26,0.77-0.42,1.66-1.23,2.03c-0.82,0.37-1.97,0.17-2.85,0.17c-1.2,0.01-2.39,0.01-3.59,0.02
		c-2.39,0.01-4.78,0.03-7.17,0.04c-2.26,0.01-4.52,0.03-6.78,0.04c-1.2,0.01-2.39,0.02-3.59,0.02
		C148.76,325.05,147.28,325.33,146.52,324.85z"/>
	<path class="st2" d="M379.45,261.76c-0.04-0.47-0.15-0.94-0.1-1.41c0.1-0.92,0.51-1.92,0.75-2.82c0.48-1.82,0.96-3.63,1.45-5.45
		c0.89-3.32,1.52-6.99,3.28-9.98c0.82-1.38,1.88-2.52,2.88-3.77c1.04-1.3,2-2.55,3.21-3.71c2.23-2.14,4.34-4.42,6.72-6.41
		c2.6-2.17,5.57-3.62,8.58-5.13c3.25-1.63,6.55-3.15,9.99-4.34c6.91-2.39,14.11-3.74,21.22-5.38c7.41-1.71,14.84-3.33,22.28-4.91
		c3.66-0.78,7.32-1.61,10.99-2.35c1.81-0.37,3.64-0.65,5.46-0.96c1.65-0.28,3.18-0.92,4.72-1.57c3.19-1.36,6.59-2.12,9.86-3.27
		c3.48-1.22,6.9-2.66,10.26-4.18c3.27-1.48,6.41-3.11,9.4-5.12c2.78-1.87,5.72-3.75,8.08-6.14c2.22-2.24,4-4.86,5.76-7.46
		c1.03-1.52,2.05-3.06,3.05-4.6c0.99-1.5,1.99-2.82,2.44-4.57c0.95-3.66,1.9-7.31,2.91-10.96c0.96-3.45,1.21-7.24,1.5-10.79
		c0.32-3.81,0.27-7.64-0.05-11.44c-0.08-0.92-0.14-1.85-0.28-2.76c-0.08-0.49-0.14-1.22-0.62-1.49c-0.44-0.25-0.11-0.13-0.53-0.03
		c-0.18,0.04-0.48,0.25-0.63,0.33c-0.32,0.16-0.64,0.33-0.95,0.49c-0.81,0.41-1.62,0.83-2.41,1.26c-3.16,1.73-6.21,3.64-9.42,5.29
		c-3.22,1.65-6.53,3.1-9.88,4.46c-13.73,5.57-28.34,7.72-42.95,9.53c-7.45,0.93-14.88,2.01-22.21,3.66
		c-6.82,1.53-13.21,3.94-19.34,7.29c-6.24,3.41-12.02,7.52-17.5,12.03c-5.23,4.3-9.1,9.73-12.5,15.55
		c-3.63,6.21-6.01,12.93-8.54,19.63c-2.65,7-4.58,14.33-6.08,21.66c-0.74,3.6-1.41,7.22-2.28,10.8c-0.28-2.33-0.56-4.64-0.97-6.96
		c-0.4-2.32-1.04-4.58-1.45-6.89c-0.83-4.71-0.51-9.55-0.36-14.31c0.27-8.15,1.69-16.27,4.37-23.98
		c5.48-15.75,16.07-29.3,29.3-39.33c14.47-10.97,31.65-17.98,49.36-21.68c9.33-1.95,18.8-3.02,28.17-4.75
		c4.65-0.86,9.27-1.89,13.83-3.15c4.19-1.16,8.43-2.42,12.36-4.3c6.92-3.31,12.71-8.49,17.31-14.59c2.66-3.51,5-7.28,7.05-11.18
		c1.02-1.94,1.8-4.02,2.84-5.95c0.28-0.52,0.36-0.84,0.89-0.36c0.25,0.22,0.4,0.51,0.52,0.82c0.37,0.94,0.6,1.98,0.92,2.95
		c2.96,9.14,5.28,18.47,7.23,27.87c1.95,9.43,3.53,18.97,3.98,28.6c0.45,9.68,0.07,19.33-1.73,28.86
		c-0.83,4.39-1.83,8.65-3.69,12.73c-1.72,3.75-3.94,7.31-6.63,10.45c-5.35,6.24-12.44,10.51-19.92,13.74
		c-8.45,3.65-17.3,5.63-26.33,7.22c-9.64,1.7-19.29,3.38-28.93,5.09c-9.69,1.71-19.42,3.31-29.06,5.32
		c-9.14,1.91-18,5.29-26.39,9.38c-8.05,3.92-15.61,8.56-22.26,14.59C385.27,255.73,382.4,258.8,379.45,261.76z"/>
	<path class="st2" d="M624.28,335.74c7.65-2.38,15.59-3.75,23.59-4.13c0.44-0.02,1.16-0.18,1.58-0.06c0.18-0.01,0.35-0.01,0.53-0.02
		c0.08,0.35,0.15,0.69,0.2,1.04c0.13,0.84,0.17,1.69,0.17,2.54c-0.01,2.08-0.26,4.16-0.44,6.23c-0.36,4.19-0.75,8.38-1.13,12.57
		c-0.75,8.32-1.67,16.67-1.66,25.03c0.01,8.56,0.15,17.13,0.27,25.69c0.03,2.05,0.06,4.1,0.08,6.14c0.01,0.93,0.02,1.86,0.04,2.79
		c0.01,0.47-0.19,2.43,0.17,2.82c0.28,0.3,1.88,0.19,2.27,0.2c1.1,0.02,2.21-0.04,3.31-0.06c2.11-0.04,4.23-0.09,6.34-0.13
		c8.18-0.17,16.34-0.3,24.52-0.3c0.16,0,0.33,0,0.49,0c0.52,0.17,0.71-0.01,0.57-0.55c0.17-0.42,0.1-1.21,0.14-1.66
		c0.08-0.92,0.15-1.85,0.23-2.77c0.18-2.22,0.36-4.43,0.54-6.65c0.35-4.24,0.69-8.49,1.04-12.73c0.69-8.48,1.39-16.95,2.08-25.43
		c0.77-9.4,1.54-18.79,2.31-28.19c0.04-0.49-0.02-1.2,0.14-1.66c-0.13-0.46,0.05-0.72,0.51-0.76c0.31-0.13,0.62-0.26,0.94-0.39
		c0.93-0.37,1.87-0.72,2.82-1.04c2.03-0.68,4.1-1.22,6.19-1.63c4.24-0.83,8.57-1.13,12.88-1.06c-1.35,21.89-2.24,43.81-3.87,65.68
		c-0.46,6.2-0.98,12.4-1.59,18.59c4.38,0.29,8.79,0.05,13.17-0.13c1.51-0.06,3.88-0.66,5.15,0.44c1.21,1.05,1.36,3.49,1.74,4.95
		c2.35,8.96,2.81,18.21,2.95,27.44c0.02,1.19,0.25,2.47-1.04,2.97c-1.88,0.73-4.24,0.87-6.22,1.09c-2.22,0.26-4.46,0.36-6.69,0.28
		c-0.48-0.02-1.06,0.03-1.52-0.12c-0.64-0.21-0.61-0.32-0.7-0.98c-0.15-1.22-0.28-2.44-0.5-3.65c-0.29-1.6-0.61-4.09-1.86-5.26
		c-1.27-1.18-3.91-0.78-5.52-0.87c-4.64-0.27-9.31-0.11-13.95-0.12c-9.29-0.03-18.53-0.6-27.8-0.83
		c-9.31-0.23-18.64-0.26-27.95-0.37c-4.59-0.05-9.39,0.28-13.95-0.24c-0.34-0.04-1.08-0.01-1.37-0.19c-0.4-0.25-0.25-0.86-0.26-1.42
		c0-1.2,0-2.41,0-3.61c0-2.4,0-4.81,0-7.21c0-9.43,0.02-18.86,0.07-28.29c0.1-18.92,0.33-37.83,0.8-56.74
		C624.14,340.58,624.21,338.16,624.28,335.74z"/>
	<path class="st2" d="M376.63,332.92c10.28-0.02,20.28,3.1,28.15,9.84c8.73,7.48,14.78,18.45,17.57,29.52
		c2.78,11.02,2.24,22.66-1.48,33.39c-3.43,9.89-9.43,18.96-17.42,25.76c-8.72,7.41-20.03,11.72-31.41,12.57
		c-12.5,0.93-25.14-2.83-35.54-9.74c-8.55-5.68-14.85-14.03-17.91-23.83c-3.29-10.5-3.34-22.21-0.42-32.8
		c2.97-10.78,9.15-20.56,16.94-28.52c4.11-4.2,9.11-7.4,14.44-9.83c5.63-2.57,11.69-4.61,17.81-5.62
		C370.4,333.15,373.51,332.93,376.63,332.92z M343.46,394.73c0.93,7.03,1.52,14.19,5.34,20.38c3.26,5.28,8.48,9.14,14.81,9.42
		c13.64,0.6,24.18-10.45,29.68-21.83c2.81-5.81,4.36-12.17,4.62-18.61c0.28-6.95-0.57-14.18-4.14-20.28
		c-3.19-5.46-8.35-9.41-14.54-10.86c-6.27-1.47-12.65,0.01-17.98,3.54c-10.91,7.22-16.26,20.47-17.48,33.05
		C343.62,391.26,343.51,393,343.46,394.73z"/>
	<path class="st2" d="M228.39,337.74c2.48-0.72,4.84-1.51,7.42-1.88c2.72-0.39,5.46-0.67,8.2-0.82c5.59-0.32,11.18-0.56,16.77-0.81
		c11.16-0.51,22.31-1.1,33.47-1.7c2.79-0.15,5.57-0.3,8.36-0.44c1.16-0.06,2.31-0.08,3.47-0.07c0.49,0.01,1.61-0.15,1.81,0.19
		c0.22,0.38,0.15,1.29,0.19,1.75c0.22,2.62,0.08,5.3,0.1,7.93c0.02,2.75,0.03,5.5,0.03,8.24c0.02,11.1-0.02,22.18-0.45,33.27
		c-0.21,5.54-0.45,11.07-0.66,16.61c-0.21,5.49-0.23,10.96-0.22,16.45c0.01,5.55-0.08,11.09-0.14,16.64
		c-0.01,1.32-0.03,2.65-0.04,3.97c-0.01,0.67,0.3,3.06-0.3,3.46c-0.44,0.29-1.56,0.19-2.07,0.23c-5.95,0.4-11.97,0.39-17.93,0.24
		c-1.2-0.03-2.41-0.06-3.61-0.15c-0.18-0.01-0.48,0.03-0.64-0.05c-0.36-0.16-0.07,0.26-0.25-0.37c-0.05-0.19-0.04-0.5-0.05-0.71
		c-0.06-1.42,0.05-2.85,0.1-4.27c0.21-5.52,0.57-11.03,0.81-16.54c0.25-5.51,0.39-11.03,0.19-16.54c-0.2-5.58-0.53-11.13-0.56-16.71
		c-0.03-5.58,0.06-11.17,0.08-16.75c0.01-2.79,0.01-5.58-0.04-8.37c-0.01-0.65-0.02-1.3-0.04-1.95c-0.01-0.28,0.11-1.54-0.09-1.72
		c-0.09-0.09-0.43-0.07-0.54-0.09c-1.77-0.2-3.59-0.12-5.37-0.1c-2.83,0.02-5.65,0.1-8.47,0.19c-5.03,0.17-10.12,0.26-15.11,0.87
		c-0.26,0.03-0.59,0.03-0.83,0.12c-0.08,0.03-0.22,0.01-0.29,0.06c-0.25,0.19-0.21,0.77-0.25,1.12c-0.29,2.69-0.36,5.38-0.49,8.08
		c-0.27,5.53-0.67,11.05-1.2,16.57c-1.02,10.63-2.16,21.49-5.6,31.65c-2.59,7.66-6.63,14.6-13.29,19.41
		c-3.19,2.3-6.77,4.02-10.51,5.23c-4.91,1.59-10.23,2.65-15.42,2.42c-2.4-0.11-3.12-1.8-3.97-3.79c-0.96-2.24-1.71-4.57-2.14-6.97
		c-0.43-2.4-0.52-4.86-0.22-7.28c0.16-1.26,0.22-3.82,1.56-4.49c0.64-0.32,1.46-0.33,2.16-0.43c1.06-0.16,2.12-0.37,3.16-0.65
		c1.85-0.48,3.64-1.15,5.34-2.02c3.14-1.61,5.88-3.91,8.03-6.71c5.31-6.93,5.9-15.42,6.42-23.82c0.69-11.08,1.23-22.16,2.01-33.23
		C227.65,347.91,227.98,342.82,228.39,337.74z"/>
	<path class="st2" d="M109.17,335.55c5.04-0.45,10-0.95,15.07-1.04c5.27-0.1,10.54-0.18,15.81-0.27
		c10.64-0.17,21.27-0.31,31.91-0.46c1.83-0.03,4.09-0.4,5.89,0.05c1.21,0.3,1.27,1.55,1.44,2.62c0.79,5.02,1.56,10.22,1.63,15.3
		c0.02,1.19-0.02,2.37-0.04,3.56c-0.01,0.36,0.19,1.64-0.02,1.85c-0.27,0.27-1.44,0.25-1.8,0.26c-2.68,0.08-5.41-0.18-8.08-0.26
		c-5.3-0.17-10.59-0.36-15.88-0.59c-5.91-0.26-11.82-0.64-17.72-0.95c-1.41-0.07-2.77-0.12-4.18,0.04
		c-0.23,0.03-0.55,0.01-0.77,0.09c-0.59,0.2-0.54,0.08-0.65,0.82c-0.09,0.68-0.14,1.36-0.15,2.04c-0.06,2.79,0.43,5.56,0.27,8.35
		c10.25,0,20.33-1.16,30.56,0.22c7.97,1.07,15.86,3.42,21.36,9.64c5.73,6.48,7.78,15.85,8.45,24.25c0.74,9.24-0.01,19.47-4.82,27.62
		c-1.8,3.06-4.28,5.69-7.3,7.57c-3.5,2.18-7.42,3.07-11.41,3.9c-9.96,2.06-20.12,3.33-30.3,3.1c-5.15-0.11-10.31-0.5-15.42-1.15
		c-2.37-0.3-4.69-0.67-6.98-1.37c-1.12-0.34-2.23-0.72-3.34-1.09c-0.57-0.19-1.14-0.38-1.71-0.56c-0.18-0.06-0.61-0.11-0.75-0.23
		c-0.35-0.3-0.2-0.67-0.17-1.19c0.79-10.54,1.34-21.1,1.51-31.67c0.34-20.9-1.03-41.8-2.03-62.66
		C109.41,340.73,109.29,338.14,109.17,335.55z M131.3,419.81c4.56,0.89,9.31,0.91,13.95,1.17c4.9,0.27,9.7,0.77,14.48-0.61
		c8.26-2.38,10.41-11.65,9.32-19.3c-1.08-7.56-5.15-14.5-12.93-16.39c-4.58-1.11-9.49-0.76-14.14-0.4c-2.48,0.19-4.95,0.39-7.42,0.7
		c-1.28,0.16-2.94-0.03-3.19,1.5c-0.39,2.44-0.07,5.14-0.07,7.6c0,2.89,0,5.79,0,8.68C131.29,408.45,131.3,414.13,131.3,419.81z"/>
	<path class="st2" d="M516.7,441.28c-7.84,0-15.67,0-23.51,0c0.56-12.05,1.12-24.11,1.68-36.16c-9.07,0.6-18.14,1.21-27.21,1.81
		c-2.04,0.14-4.07,0.27-6.11,0.41c-1.11,0.07-2.23,0.15-3.34,0.22c-0.19,0.01-0.37,0.02-0.56,0.04c-0.54-0.15-0.74,0.05-0.59,0.59
		c-0.22,0.58-0.08,1.58-0.11,2.21c-0.19,4.38-0.2,8.77-0.18,13.16c0.03,4.35,0.09,8.69,0.06,13.04c-0.01,0.99,0.39,4.41-0.3,4.91
		c-0.3,0.22-1.25,0.15-1.61,0.17c-4.54,0.33-9.12,0.31-13.66,0.28c-2.15-0.01-4.31-0.04-6.46-0.14c-0.65-0.03-1.31-0.06-1.95-0.13
		c-0.14-0.01-0.57,0.01-0.68-0.09c-0.36-0.33,0.01-3.07,0.01-3.59c0.08-8.85,0.16-17.7,0.22-26.55c0.14-17.89,0.03-35.79,0.4-53.68
		c0.09-4.45,0.2-8.91,0.28-13.36c0.02-1.11,0.04-2.23,0.06-3.34c0.02-0.93-0.13-2.03,0.12-2.94c0.42-1.53,2.15-1.61,3.45-1.91
		c4.21-0.96,8.43-2,12.73-2.5c2.1-0.25,4.22-0.4,6.33-0.58c0.86-0.08,1.69-0.13,2.55-0.12c0.83,0.01,0.67-0.16,0.94,0.53
		c0.15,0.39,0.1,1.04,0.1,1.44c0.05,4.58-0.57,9.28-0.88,13.85c-0.31,4.39-0.65,8.78-1.02,13.17c-0.36,4.35-0.74,8.69-1.05,13.04
		c-0.14,1.96-0.21,3.93-0.24,5.9c-0.02,1.07-0.03,2.15-0.04,3.22c-0.01,0.56-0.23,2.65,0.16,3.06c0.33,0.35,2.77,0.05,3.29,0.06
		c1.09,0,2.18-0.01,3.28-0.04c2.18-0.06,4.35-0.17,6.52-0.31c4.34-0.29,8.66-0.72,12.99-1.13c4.34-0.41,8.68-0.8,13.03-1.03
		c0.18-0.01,0.36-0.02,0.55-0.03c0.53,0.16,0.73-0.03,0.6-0.57c0.18-0.41,0.12-1.17,0.17-1.62c0.11-1.05,0.23-2.11,0.34-3.16
		c0.24-2.31,0.45-4.63,0.66-6.95c0.8-8.8,1.64-17.6,2.32-26.41c0.15-1.94,0.26-3.88,0.35-5.82c0.07-1.59,0.32-2.86,1.88-3.6
		c3.56-1.69,7.91-2.48,11.79-3.03c2.05-0.29,4.11-0.47,6.17-0.55c0.89-0.03,2.3-0.31,3.15-0.04c0.64,0.2,0.3-0.32,0.58,0.48
		c0.18,0.53,0.07,1.25,0.05,1.79c-0.21,4.45-0.55,8.89-0.82,13.34c-0.56,9.06-1.13,18.12-1.64,27.18c-0.5,8.83-0.94,17.66-1.7,26.47
		c-0.74,8.71-1.67,17.39-2.28,26.11C517.27,432.68,516.97,436.98,516.7,441.28z"/>
	<path class="st2" d="M101.14,441.77c-4.52,0-9.04,0-13.56,0c-2.18,0-4.35,0-6.53,0c-0.23,0-1.5,0.15-1.65,0
		c-0.15-0.15-0.02-1.39-0.02-1.62c-0.01-1.26,0-2.52,0.02-3.78c0.07-4.31,0.27-8.63,0.28-12.94c0-2.16-0.04-4.33-0.18-6.49
		c-0.07-1.09-0.16-2.17-0.27-3.25c-0.12-1.1-0.05-2.8-0.53-3.81c-0.34-0.71-0.13-0.55-0.99-0.59c-0.48-0.02-0.96-0.05-1.44-0.06
		c-1.05-0.02-2.1,0.05-3.16,0.1c-2.34,0.11-4.69,0.25-7.03,0.33c-1.54,0.05-3.47-0.27-4.92,0.33c-1.56,0.65-2.16,2.55-2.9,3.91
		c-4.1,7.56-8.61,14.94-12.92,22.38c-0.62,1.07-1.24,2.14-1.86,3.21c-0.27,0.46-0.54,0.92-0.8,1.38c-0.52,0.9-0.56,0.93-1.6,0.93
		c-2.48,0-4.96,0-7.44,0c-5.06,0-10.11,0-15.17,0c4.98-12.31,13.88-22.45,19.7-34.33c-3.13-1.42-6.25-2.6-8.96-4.78
		c-2.61-2.1-4.69-4.76-6.29-7.69c-3.96-7.25-5.6-15.54-5.31-23.75c0.26-7.64,1.3-15.64,5.87-22c4.29-5.98,10.89-9.73,17.76-12.02
		c8.3-2.76,17.18-3.93,25.9-4.21c8.81-0.29,18.08-0.37,26.63,2.04c1.71,0.48,3.63,0.96,5.19,1.81c1.05,0.58,1.01,1.33,0.94,2.45
		c-0.28,4.53-0.65,9.06-0.83,13.6c-0.38,9.18-0.4,18.37-0.19,27.56c0.24,10.42,0.58,20.84,0.93,31.25
		c0.17,5.21,0.35,10.42,0.53,15.63C100.5,432.17,101.14,436.97,101.14,441.77z M78.46,391.89c0.89-10.37,1.04-20.95,0.87-31.35
		c-0.02-1.08,0.43-3.65-0.73-4.34c-0.52-0.31-1.39-0.27-1.97-0.32c-1.34-0.12-2.68-0.25-4.02-0.38c-5.25-0.5-10.55-1.12-15.82-0.85
		c-3.85,0.19-7.81,0.83-10.86,3.37c-3.05,2.54-4.49,6.45-4.97,10.3c-0.89,7.29,0.92,16.67,7.57,20.87
		c3.88,2.45,8.58,2.75,13.04,2.94C67.22,392.36,72.81,392.17,78.46,391.89z"/>
	<path class="st2" d="M535.16,337.31c5.66-0.8,11.28-1.68,16.97-2.21c5.77-0.54,11.56-0.94,17.35-1.24
		c11.48-0.6,22.98-0.79,34.48-0.85c2.8-0.01,5.6-0.02,8.4-0.02c0.5,0,1.22-0.14,1.7,0c0.65,0.18,0.21-0.31,0.61,0.5
		c0.13,0.26,0.2,0.71,0.27,0.97c0.35,1.31,0.44,2.62,0.5,3.97c0.23,5.45-0.33,10.92-1.68,16.2c-0.41,1.6-0.7,2.12-2.41,2.11
		c-2.8-0.02-5.61-0.16-8.42-0.25c-5.81-0.19-11.62-0.37-17.42-0.56c-5.74-0.19-11.49-0.47-17.23-0.41c-2.77,0.02-5.51,0.47-8.26,0.8
		c-0.85,0.1-1.75,0.16-2.12,1.05c-0.49,1.16-0.13,2.95-0.12,4.18c0.01,2.87,0.03,5.74,0.04,8.61c0.01,1.39,0.01,2.78,0.02,4.16
		c0,0.88-0.37,2.95,0.16,3.68c0.52,0.72,2.69,0.51,3.6,0.54c1.51,0.04,3.03,0,4.54-0.06c2.78-0.11,5.55-0.3,8.34-0.28
		c2.88,0.02,5.76,0.05,8.64,0.04c1.39,0,2.79-0.01,4.18-0.01c0.74,0,1.49,0,2.23-0.01c0.28,0,0.56,0,0.84,0
		c0.87,0,0.95-0.24,1.13,0.55c0.26,1.16,0.06,2.6,0.09,3.8c0.04,1.52,0.07,3.05,0.11,4.57c0.06,2.79,0.13,5.58,0.19,8.37
		c0.02,1.06,0.14,1.08-0.91,1.18c-0.52,0.05-1.03,0.1-1.55,0.13c-1.5,0.08-3,0.06-4.5,0.09c-2.84,0.04-5.69,0.09-8.53,0.13
		c-5.7,0.08-11.43,0-17.13,0.25c-0.6,0.03-1.63-0.03-2.07,0.48c-0.53,0.61-0.26,2.07-0.25,2.78c0.04,2.86,0.1,5.73,0.17,8.59
		c0.03,1.48,0.07,2.96,0.11,4.43c0.02,0.88-0.39,3.28,0.39,3.88c0.31,0.24,1.46,0.06,1.89,0.07c0.72,0.02,1.44,0.05,2.16,0.06
		c1.44,0.03,2.88,0.05,4.33,0.06c11.34,0.06,22.68-0.61,34.02-0.51c2.93,0.03,5.86,0.1,8.79,0.25c0.9,0.05,3.48-0.14,3.9,0.52
		c0.26,0.4,0.22,1.42,0.28,1.92c0.11,0.82,0.19,1.64,0.26,2.47c0.48,5.71,0.09,11.44-0.6,17.11c-0.1,0.84,0.13,1.9-0.63,2.2
		c-0.28,0.11-0.74,0.04-1.04,0.05c-1.25,0.05-2.49,0.07-3.74,0.1c-9.84,0.18-19.68,0.2-29.53,0.23c-11.2,0.03-22.39,0.04-33.59-0.04
		c-3.35-0.02-6.7-0.04-10.05-0.14c-0.42-0.01-0.88,0.03-1.29-0.05c-0.52-0.09-0.43,0.09-0.63-0.33c-0.2-0.42,0.07-1.74,0.09-2.21
		c0.03-0.64,0.05-1.29,0.08-1.93c0.06-1.47,0.12-2.95,0.17-4.42c0.12-2.95,0.23-5.9,0.34-8.85c0.86-23.21,1.52-46.43,2.02-69.64
		C534.95,348.66,535.06,342.99,535.16,337.31z"/>
	<path class="st2" d="M404.54,531.49c-3.45-2.8-4.15-6.49-4.18-10.44c-0.03-3.88,1.65-6.77,5.06-8.59
		c5.55-2.96,11.21-2.83,16.83-0.32c3.34,1.49,5.06,4.33,5.4,7.93c0.41,4.26-0.01,8.32-3.56,11.51c0.71,0.66,1.29,1.18,1.85,1.72
		c3.71,3.67,4.72,8.01,3.22,12.97c-1.37,4.54-4.74,6.63-9.17,7.32c-3.97,0.62-7.93,0.67-11.93,0.08
		c-9.39-1.4-12.01-10.62-8.96-17.02c0.68-1.43,2.1-2.54,3.27-3.71C402.91,532.4,403.66,532.07,404.54,531.49z M413.26,535.32
		c-1.07,0.28-2.27,0.45-3.35,0.9c-1.85,0.76-2.89,2.21-2.93,4.26c-0.05,2.06,0.95,3.49,2.74,4.4c2.6,1.33,6.36,0.9,8.57-1
		c1.28-1.1,2.02-2.5,1.72-4.23c-0.33-1.89-1.45-3.19-3.32-3.7C415.61,535.66,414.5,535.54,413.26,535.32z M413.24,527.96
		c2.35,0.01,4.39-0.7,5.84-2.63c1.23-1.63,1.15-3.22-0.14-4.78c-1.97-2.36-5.63-2.66-8.41-0.69c-1.83,1.3-2.9,3.72-2.37,5.34
		c0.55,1.68,2.37,2.71,4.84,2.76C413.08,527.96,413.16,527.96,413.24,527.96z"/>
	<path class="st2" d="M337.84,534.54c0.1-5.49,1.12-10.18,3.08-14.73c2.36-5.48,6.57-8.22,12.23-9.14c0.55-0.09,1.1-0.2,1.65-0.27
		c5.53-0.67,8.76,1.14,11.18,5.13c2.19,3.62,3.38,7.56,3.85,11.74c0.75,6.66-0.3,12.97-3.27,19.06c-4.5,9.23-15.66,8.99-21.51,5.59
		c-2.06-1.2-3.41-3.1-4.48-5.19C338.53,542.72,337.89,538.4,337.84,534.54z M347.84,533.71c-0.02,3.82,0.25,7.16,1.54,10.32
		c0.91,2.23,2.2,2.8,4.56,2.31c3.01-0.63,4.31-2.86,5.15-5.45c1.63-5.09,2.06-10.34,1.49-15.63c-0.19-1.71-0.68-3.5-1.49-5
		c-1.86-3.44-6.39-3.41-8.39-0.04c-0.52,0.88-0.9,1.87-1.2,2.86C348.38,526.69,347.7,530.37,347.84,533.71z"/>
	<path class="st2" d="M311.24,524.45c-3.03-1.01-5.41-2.48-7.37-4.86c2.44-4.56,6.02-7.57,10.94-8.72c3.28-0.77,6.67-0.76,9.99-0.03
		c6.24,1.38,10.49,7.78,9.51,14.12c-0.44,2.85-1.49,5.41-3.45,7.51c-3.27,3.51-6.61,6.95-9.92,10.42c-0.58,0.61-1.13,1.25-1.85,2.06
		c5.24,1.36,10.18,0.15,15.28,0.25c0.45,2.74,0.3,5.3-0.49,7.96c-9.16,0-18.25,0-27.68,0c0.1-2.08,0.13-4.12,0.35-6.14
		c0.06-0.53,0.71-1.03,1.16-1.46c3.05-2.94,6.21-5.77,9.16-8.81c2.44-2.52,4.65-5.25,6.93-7.92c0.46-0.54,0.82-1.19,1.11-1.84
		c1.58-3.58-0.33-6.88-4.2-7.37C316.54,519.06,313.32,520.45,311.24,524.45z"/>
	<path class="st2" d="M373.7,519.89c4.9-1.73,9.51-3.77,10.8-9.7c2.63,0.33,4.99,0.61,7.35,0.94c1.17,0.16,1.76,0.78,1.8,2.09
		c0.22,7.11,0.65,14.21,0.77,21.33c0.09,5.67-0.15,11.35-0.25,17.02c-0.01,0.46-0.12,0.92-0.2,1.55c-2.76,0-5.42,0-8.38,0
		c0-10.03,0-19.89,0-30.19c-1.08,0.61-1.73,1.01-2.41,1.36c-1.77,0.91-3.55,1.81-5.34,2.7c-0.93,0.46-1.67,0.3-2.21-0.66
		C374.53,524.34,373.76,522.28,373.7,519.89z"/>
	<path class="st1" d="M566.61,369.5c0-1.19,0-2.13,0-3.07c0-0.62,0-1.25,0-2.17c11.32-0.17,22.43,0.7,33.64,1.01
		c0.69,1.76,0.29,3.52,0.35,5.23c0.07,1.75,0.01,3.5,0.01,5.83c-1.08-2.21-1.96-3.86-3.6-4.95c-2.29-1.52-4.9-1.95-7.52-1.97
		c-6.86-0.07-13.73,0.04-20.59,0.08C568.28,369.5,567.65,369.5,566.61,369.5z"/>
	<path class="st1" d="M565.78,408.86c0-1.15,0-1.84,0-2.74c0.73-0.06,1.43-0.17,2.12-0.18c7.11-0.14,14.23-0.29,21.34-0.36
		c2.75-0.03,5.37-0.5,8.22-1.89c-0.32,1.65-0.58,3.01-0.89,4.61C586.3,408.48,576.18,408.67,565.78,408.86z"/>
	<path d="M600.34,381.46c0.04,0,0.08,0,0.12,0"/>
	<path d="M600.46,382.81c-0.04,0-0.08,0-0.12,0"/>
	<path class="st3" d="M343.46,394.73c0.39-12.97,3.6-23.47,11.23-32.35c3.72-4.33,8.2-7.62,13.74-9.23c8.62-2.5,18.53,1,23.84,8.34
		c2.93,4.04,4.62,8.62,5.24,13.5c1.89,14.96-2.18,28.2-12.15,39.49c-4.79,5.42-10.84,8.9-18.14,9.87c-6.96,0.93-12.56-1.58-16.84-7
		c-3.09-3.91-4.7-8.54-5.65-13.35C344.03,400.5,343.75,396.91,343.46,394.73z"/>
	<path class="st3" d="M131.3,419.81c0-1.03,0-1.9,0-2.77c0-9.52,0-19.04,0-28.55c0-0.4-0.01-0.8,0.01-1.2
		c0.09-1.8,0.13-1.88,1.88-2.12c1.82-0.25,3.65-0.47,5.48-0.62c4.78-0.39,9.55-0.85,14.36-0.38c6.61,0.64,11.41,3.73,14.05,9.97
		c2.43,5.73,2.92,11.57,1.19,17.57c-1.3,4.5-4.19,7.5-8.73,8.72c-1.98,0.53-4.08,0.99-6.11,0.93c-6.54-0.21-13.08-0.68-19.62-1.07
		C133.09,420.24,132.4,420.03,131.3,419.81z M141.67,393.2c0.17,1.93,0.3,3.73,0.5,5.53c0.45,3.97,0.95,7.93,1.43,11.9
		c0.12,1.03,0.42,1.86,1.71,1.86c3.36,0,6.72,0.17,10.07,0.03c2.72-0.11,4.48-1.79,4.87-4.43c0.6-4.03,0.31-7.94-1.74-11.63
		c-1.07-1.92-2.64-3.01-4.66-3.41C149.89,392.26,145.92,392.71,141.67,393.2z"/>
	<path class="st3" d="M78.46,391.89c-3,0.15-5.7,0.44-8.4,0.39c-4.78-0.08-9.6-0.01-14.32-0.63c-7.82-1.03-12.58-5.62-14.19-13.47
		c-0.93-4.53-1.2-8.99,0.15-13.49c1.77-5.88,5.87-8.96,11.78-9.75c4.94-0.66,9.89-0.27,14.83,0.16c2.86,0.25,5.72,0.55,8.58,0.8
		c2.14,0.18,2.35,0.3,2.39,2.4c0.07,3.35,0.12,6.71,0.05,10.07c-0.13,6.47-0.33,12.93-0.53,19.4
		C78.77,389.03,78.6,390.29,78.46,391.89z"/>
	<path class="st3" d="M413.26,535.32c1.23,0.22,2.35,0.34,3.42,0.63c1.87,0.51,2.99,1.81,3.32,3.7c0.3,1.73-0.44,3.12-1.72,4.23
		c-2.21,1.9-5.97,2.33-8.57,1c-1.79-0.91-2.78-2.34-2.74-4.4c0.05-2.06,1.08-3.5,2.93-4.26
		C410.99,535.77,412.19,535.59,413.26,535.32z"/>
	<path class="st3" d="M413.24,527.96c-0.08,0-0.16,0-0.24,0c-2.47-0.04-4.29-1.08-4.84-2.76c-0.53-1.62,0.54-4.04,2.37-5.34
		c2.78-1.98,6.44-1.68,8.41,0.69c1.3,1.56,1.37,3.15,0.14,4.78C417.63,527.26,415.59,527.97,413.24,527.96z"/>
	<path class="st3" d="M347.84,533.71c-0.14-3.34,0.53-7.03,1.65-10.63c0.3-0.98,0.68-1.97,1.2-2.86c2-3.37,6.53-3.4,8.39,0.04
		c0.81,1.5,1.31,3.29,1.49,5c0.57,5.29,0.15,10.54-1.49,15.63c-0.83,2.59-2.14,4.82-5.15,5.45c-2.36,0.49-3.65-0.08-4.56-2.31
		C348.09,540.87,347.83,537.54,347.84,533.71z"/>
	<path class="st1" d="M141.67,393.2c2.48-0.29,4.97-0.58,7.47-0.58c2.11,0,4.52,0.07,6.45,1.01c3.89,1.89,4.99,7.37,4.93,11.29
		c-0.03,1.86-0.09,4.06-1.21,5.64c-1.03,1.44-2.62,1.92-4.31,1.99c-2.58,0.1-5.17,0.01-7.75-0.03c-0.84-0.01-2.12,0.23-2.87-0.24
		c-0.74-0.46-0.76-1.46-0.85-2.22C142.85,404.43,142.17,398.83,141.67,393.2z"/>
</g>
</svg>
